<svg width="2395" height="900" viewBox="0 0 2395 900" fill="none" xmlns="http://www.w3.org/2000/svg">
<path d="M132.647 138.581C139.657 130.973 154.328 127.69 163.337 124.233C175.45 119.584 184.817 116.297 196.583 110.909C202.81 108.058 213.09 99.7188 220.24 98.3544C222.253 97.9702 225.608 111.078 227.017 112.703C239.616 127.238 268.12 114.693 281.746 108.86C293.021 104.033 304.504 93.9769 316.272 90.6677C320.297 89.5357 324.636 90.4885 328.803 90.1553C358.169 87.8071 386.224 80.0221 414.094 70.6823C436.775 63.0811 455.481 55.5707 477.007 45.9567C485.169 42.3114 495.362 30.0343 501.942 36.0921C511.345 44.7488 510.66 50.8076 526.365 50.1844C563.667 48.7043 602.265 43.7799 639.532 39.6793C679.06 35.3299 718.789 22.4973 758.197 19.9501C767.357 19.358 765.468 28.8327 771.752 32.505C784.396 39.8949 806.839 35.0391 819.832 32.7612C831.498 30.7157 840.531 28.1675 851.544 24.3059C855.233 23.0123 864.199 17.2812 868.935 19.4376C870.072 19.9555 874.279 24.1659 874.817 24.5621C883.524 30.9767 895.354 31.9561 905.762 32.2488C937.613 33.1445 968.972 26.6871 1000.39 22.6404C1009.15 21.5117 1010.49 23.4752 1017.91 26.8681C1049.1 41.1335 1096.34 26.8039 1127.75 21.4874C1130.89 20.9563 1190.52 4.62403 1195.01 10.3417C1200.5 17.3384 1199.85 26.1612 1210.61 27.893C1227.76 30.6554 1245.85 23.6173 1261.52 17.5224L1262.52 17.1316C1271.38 13.6881 1302.57 -6.72713 1312.27 2.27065C1326.7 15.6628 1333.26 24.565 1355.36 26.6119C1386.2 29.4685 1416.74 21.4088 1447.3 19.0533L1447.82 19.0128C1453.51 18.5725 1459.24 18.1289 1464.69 19.9501C1482.54 25.9111 1506.09 20.5247 1523.9 17.6441C1542.18 14.686 1562.37 5.20488 1579.52 15.9786C1597.78 27.4507 1609.73 37.0285 1632.33 39.423C1672.11 43.6381 1712.72 39.7892 1751.51 30.4552C1754.39 29.7613 1806.54 9.48672 1808.79 14.185C1814.4 25.893 1821.07 39.5363 1835.14 42.4977C1855.09 46.6986 1877.31 34.9619 1895.49 28.5335C1903.87 25.5695 1911.08 21.9022 1919.02 27.1243C1932.62 36.0634 1944.47 41.1942 1960.96 44.0351C1991.07 49.2215 2022.5 50.6717 2052.52 44.2913C2059.59 42.7879 2061.76 40.7074 2067.1 45.0599C2092.51 65.7877 2132.06 56.3299 2158.65 43.5226C2166.19 39.8909 2165.88 39.0054 2171.18 45.0599C2179.43 54.4763 2186.8 55.3567 2199.32 53.7715C2213.3 52.0004 2225.86 47.4399 2238.83 42.2415C2249.25 38.0635 2251.49 44.7655 2259.16 51.4655C2274.32 64.7022 2291.91 74.5295 2310.18 82.7248L2311.04 83.111C2321.37 87.7332 2328.97 91.138 2330.77 103.479C2333.82 124.405 2332.98 146.203 2333.07 167.278C2333.11 175.889 2331.37 187.163 2333.45 195.847C2357.34 295.551 2343.34 403.516 2378.98 500.625C2381.62 507.832 2380.7 507.22 2378.21 516.255C2367.69 554.454 2357.36 592.496 2351.74 631.811C2347.28 663.008 2360.12 682.866 2364.53 713.547C2370.92 758.047 2374.56 802.897 2376.29 847.808C2376.58 855.232 2374.68 869.285 2375.43 877.919C2377.74 876.488 2379.84 874.982 2381.28 874.07C2386.28 870.902 2396.9 856.903 2394.7 862.412C2391.99 869.2 2388.35 880.504 2381.79 884.448C2377.58 886.979 2375.92 883.637 2375.43 877.919C2371.75 880.199 2367.52 882.291 2364.53 881.501C2359.75 880.242 2359.11 873.183 2353.53 871.893C2333.51 867.265 2310.42 871.286 2290.1 871.765C2281.82 871.96 2270.81 873.625 2263.51 868.562C2255.89 863.276 2249.1 857.063 2239.47 855.494C2210.79 850.826 2179.57 870.658 2157.12 885.857C2150.43 890.384 2138.13 906.004 2129.5 897.515C2120.69 888.854 2116.05 878.225 2104.43 872.405C2078.66 859.496 2048.25 871.808 2022.85 859.338C2016.15 856.049 2010.55 850.454 2002.9 849.345C1992.51 847.837 1981.47 850.547 1971.06 851.01C1964.06 851.322 1959.1 850.432 1952.78 847.423C1937.08 839.951 1920.34 839.071 1903.16 841.146C1878.04 844.18 1853.97 853.221 1829.64 859.722C1820.79 862.086 1814.52 863.289 1806.49 858.569C1781.71 843.997 1755.59 858.994 1730.02 866.64C1714.17 871.382 1705.17 864.967 1691.92 856.519C1673.18 844.571 1657.49 836.626 1634.89 840.249C1608.99 844.401 1566.21 866.033 1541.29 851.139C1531.61 845.356 1523.21 842.681 1511.75 842.171C1476.18 840.587 1440.31 841.998 1404.72 841.914C1379.3 841.855 1352.13 843.898 1326.97 839.096C1318.01 837.385 1313.24 834.674 1303.96 836.534C1267.23 843.893 1216.56 866.96 1180.81 848.32C1169.66 842.5 1159.19 835.095 1146.8 832.05C1132.41 828.512 1116.47 831.62 1101.92 832.178C1080.18 833.012 1057.99 833.58 1036.32 831.281C1017.86 829.323 1000.7 825.5 981.973 826.797C958.161 828.446 934.545 831.433 910.749 832.947C893.223 834.061 877.021 839.107 859.984 842.683C848.723 845.047 838.527 834.475 829.55 829.103C818.417 822.442 805.448 813.785 792.083 812.961C776.372 811.993 760.215 820.271 744.899 822.954C729 825.739 719.033 821.158 704.107 817.061C680.62 810.614 662.518 825.536 642.601 835.765C631.226 841.607 612.476 853.239 598.613 849.601C590.037 847.351 585.417 837.496 576.491 835.509C563.427 832.6 548.455 837.511 535.444 838.584C518.574 839.974 507.453 835.404 493.119 827.31C459.671 808.422 420.161 844.119 386.601 849.601C371.821 852.016 365.667 847.074 354.761 838.968C347.169 833.325 336.655 834.749 327.824 835.946L327.269 836.021C314.719 837.718 302.203 841.244 289.418 840.377C276.997 839.535 266.933 831.851 255.788 827.182C245.854 823.02 237.59 820.931 227.273 824.491C215.115 828.687 205.404 832.455 194.409 823.21C170.323 802.957 158.201 759.486 124.463 752.493C116.965 750.938 111.851 752.04 105.794 745.831C88.1922 727.786 80.5986 698.74 71.013 676.138C63.181 657.671 54.7667 639.491 46.3446 621.294L44.9271 618.232C41.5792 610.996 38.2777 604.838 38.2777 596.837C38.2777 556.429 30.6879 524.665 11.9361 488.839C5.01659 475.619 -2.05693 461.81 0.555459 446.434C5.90848 414.926 22.1577 383.363 32.6513 353.297C41.5388 327.833 50.1907 305.663 66.0259 283.732C78.1122 266.993 88.0446 251.308 93.007 231.078C97.1669 214.12 95.8201 196.384 95.8201 179.065C95.8201 172.363 93.1102 160.807 99.2727 156.005C103.288 152.875 110.666 157.15 113.722 152.418C116.361 148.332 127.738 140.221 132.647 138.581Z" fill="#EEF5FF"/>
</svg>
