<svg width="2395" height="700" viewBox="0 0 2395 700" fill="none" xmlns="http://www.w3.org/2000/svg">
<path d="M132.647 107.786C139.657 101.868 154.328 99.3146 163.337 96.6256C175.45 93.0099 184.817 90.453 196.583 86.2628C202.81 84.0453 213.09 77.5591 220.24 76.4979C222.253 76.1991 225.608 86.3941 227.017 87.6578C239.616 98.9628 268.12 89.2059 281.746 84.6685C293.021 80.9143 304.504 73.0932 316.272 70.5193C320.297 69.6389 324.636 70.3799 328.803 70.1208C358.169 68.2944 386.224 62.2394 414.094 54.9751C436.775 49.0631 455.481 43.2216 477.007 35.7441C485.169 32.9089 495.362 23.36 501.942 28.0717C511.345 34.8046 510.66 39.517 526.365 39.0323C563.667 37.8812 602.265 34.051 639.532 30.8616C679.06 27.4788 718.789 17.4979 758.197 15.5167C767.357 15.0562 765.468 22.4254 771.752 25.2817C784.396 31.0293 806.839 27.2527 819.832 25.481C831.498 23.89 840.531 21.908 851.544 18.9046C855.233 17.8985 864.199 13.4409 868.935 15.1181C870.072 15.5209 874.279 18.7957 874.817 19.1038C883.524 24.093 895.354 24.8547 905.762 25.0824C937.613 25.7791 968.972 20.7566 1000.39 17.6092C1009.15 16.7314 1010.49 18.2585 1017.91 20.8974C1049.1 31.9927 1096.34 20.8474 1127.75 16.7124C1130.89 16.2993 1190.52 3.59647 1195.01 8.04353C1200.5 13.4854 1199.85 20.3476 1210.61 21.6945C1227.76 23.8431 1245.85 18.369 1261.52 13.6286L1262.52 13.3246C1271.38 10.6463 1302.57 -5.23221 1312.27 1.76606C1326.7 12.1822 1333.26 19.1061 1355.36 20.6981C1386.2 22.9199 1416.74 16.6513 1447.3 14.8192L1447.82 14.7878C1453.51 14.4453 1459.24 14.1003 1464.69 15.5167C1482.54 20.1531 1506.09 15.9636 1523.9 13.7232C1542.18 11.4225 1562.37 4.04824 1579.52 12.4278C1597.78 21.3505 1609.73 28.8 1632.33 30.6624C1672.11 33.9407 1712.72 30.9471 1751.51 23.6874C1754.39 23.1476 1806.54 7.37856 1808.79 11.0328C1814.4 20.139 1821.07 30.7504 1835.14 33.0538C1855.09 36.3211 1877.31 27.1926 1895.49 22.1928C1903.87 19.8874 1911.08 17.035 1919.02 21.0967C1932.62 28.0493 1944.47 32.04 1960.96 34.2495C1991.07 38.2834 2022.5 39.4113 2052.52 34.4488C2059.59 33.2795 2061.76 31.6613 2067.1 35.0466C2092.51 51.1682 2132.06 43.8121 2158.65 33.8509C2166.19 31.0262 2165.88 30.3376 2171.18 35.0466C2179.43 42.3705 2186.8 43.0552 2199.32 41.8223C2213.3 40.4447 2225.86 36.8977 2238.83 32.8545C2249.25 29.605 2251.49 34.8176 2259.16 40.0287C2274.32 50.3239 2291.91 57.9674 2310.18 64.3415L2311.04 64.6419C2321.37 68.2369 2328.97 70.8851 2330.77 80.4836C2333.82 96.7594 2332.98 113.713 2333.07 130.105C2333.11 136.803 2331.37 145.571 2333.45 152.326C2357.34 229.873 2343.34 313.846 2378.98 389.375C2381.62 394.98 2380.7 394.504 2378.21 401.531C2367.69 431.242 2357.36 460.83 2351.74 491.409C2347.28 515.673 2360.12 531.118 2364.53 554.981C2370.92 589.593 2374.56 624.475 2376.29 659.406C2376.58 665.181 2374.68 676.11 2375.43 682.826C2377.74 681.713 2379.84 680.542 2381.28 679.833C2386.28 677.368 2396.9 666.48 2394.7 670.765C2391.99 676.044 2388.35 684.837 2381.79 687.904C2377.58 689.873 2375.92 687.273 2375.43 682.826C2371.75 684.599 2367.52 686.227 2364.53 685.612C2359.75 684.633 2359.11 679.142 2353.53 678.139C2333.51 674.539 2310.42 677.667 2290.1 678.039C2281.82 678.191 2270.81 679.486 2263.51 675.548C2255.89 671.437 2249.1 666.604 2239.47 665.385C2210.79 661.754 2179.57 677.178 2157.12 689C2150.43 692.521 2138.13 704.67 2129.5 698.067C2120.69 691.331 2116.05 683.064 2104.43 678.537C2078.66 668.497 2048.25 678.073 2022.85 668.374C2016.15 665.816 2010.55 661.464 2002.9 660.602C1992.51 659.429 1981.47 661.537 1971.06 661.897C1964.06 662.14 1959.1 661.447 1952.78 659.107C1937.08 653.295 1920.34 652.611 1903.16 654.225C1878.04 656.584 1853.97 663.616 1829.64 668.673C1820.79 670.512 1814.52 671.447 1806.49 667.776C1781.71 656.442 1755.59 668.107 1730.02 674.053C1714.17 677.741 1705.17 672.752 1691.92 666.182C1673.18 656.889 1657.49 650.709 1634.89 653.527C1608.99 656.756 1566.21 673.581 1541.29 661.997C1531.61 657.499 1523.21 655.419 1511.75 655.022C1476.18 653.79 1440.31 654.887 1404.72 654.822C1379.3 654.776 1352.13 656.365 1326.97 652.63C1318.01 651.3 1313.24 649.191 1303.96 650.637C1267.23 656.362 1216.56 674.302 1180.81 659.805C1169.66 655.278 1159.19 649.519 1146.8 647.15C1132.41 644.398 1116.47 646.816 1101.92 647.25C1080.18 647.898 1057.99 648.34 1036.32 646.552C1017.86 645.029 1000.7 642.056 981.973 643.065C958.161 644.347 934.545 646.67 910.749 647.847C893.223 648.715 877.021 652.639 859.984 655.42C848.723 657.259 838.527 649.036 829.55 644.858C818.417 639.677 805.448 632.944 792.083 632.303C776.372 631.55 760.215 637.989 744.899 640.075C729 642.241 719.033 638.678 704.107 635.492C680.62 630.478 662.518 642.084 642.601 650.04C631.226 654.583 612.476 663.63 598.613 660.801C590.037 659.051 585.417 651.386 576.491 649.84C563.427 647.578 548.455 651.398 535.444 652.232C518.574 653.313 507.453 649.759 493.119 643.463C459.671 628.773 420.161 656.537 386.601 660.801C371.821 662.679 365.667 658.836 354.761 652.531C347.169 648.141 336.655 649.25 327.824 650.18L327.269 650.239C314.719 651.558 302.203 654.301 289.418 653.627C276.997 652.972 266.933 646.995 255.788 643.364C245.854 640.126 237.59 638.502 227.273 641.271C215.115 644.534 205.404 647.465 194.409 640.275C170.323 624.522 158.201 590.711 124.463 585.272C116.965 584.063 111.851 584.92 105.794 580.091C88.1922 566.056 80.5986 543.464 71.013 525.885C62.7416 510.716 53.8208 495.796 44.9271 480.847C41.5792 475.219 38.2777 470.43 38.2777 464.207C38.2777 432.778 30.6879 408.073 11.9361 380.208C5.01659 369.926 -2.05693 359.186 0.555459 347.226C5.90848 322.72 22.1577 298.171 32.6513 274.786C41.5388 254.981 50.1907 237.738 66.0259 220.68C78.1122 207.661 88.0446 195.462 93.007 179.727C97.1669 166.538 95.8201 152.743 95.8201 139.273C95.8201 134.06 93.1102 125.072 99.2727 121.337C103.288 118.903 110.666 122.228 113.722 118.547C116.361 115.369 127.738 109.061 132.647 107.786Z" fill="#EEF5FF"/>
</svg>
