<svg width="48" height="48" viewBox="0 0 48 48" fill="none" xmlns="http://www.w3.org/2000/svg">
<path d="M24 0C30.3637 0 36.4725 2.53007 40.9688 7.0293C45.4688 11.5285 48 17.6374 48 24C48 30.3626 45.4688 36.4715 40.9688 40.9707C36.4725 45.4699 30.3637 48 24 48C17.6363 48 11.5275 45.4699 7.03125 40.9707C2.53125 36.4715 0 30.3626 0 24C0.00124676 17.6347 2.53036 11.5303 7.03125 7.0293C11.5275 2.53007 17.6363 0 24 0ZM33.8135 14.4473C32.9097 14.4636 31.5258 14.9445 24.8584 17.7168C22.5259 18.6877 17.8608 20.6981 10.8633 23.7461C9.72756 24.1978 9.13091 24.6394 9.07812 25.0713C8.97313 25.9012 10.1699 26.1598 11.6699 26.6484C12.8962 27.0467 14.5464 27.5129 15.4014 27.5312C16.1813 27.548 17.0478 27.228 18.0039 26.5703C24.5439 22.1577 27.9152 19.9269 28.1289 19.8789C28.2787 19.8452 28.4844 19.8024 28.623 19.9268C28.7655 20.0513 28.7513 20.2882 28.7363 20.3516C28.618 20.8598 22.4789 26.4422 22.125 26.8105C20.775 28.213 19.2374 29.0713 21.6074 30.6328C23.6585 31.9838 24.8509 32.8457 26.9619 34.2305C28.3119 35.1151 29.3697 36.1643 30.7646 36.0361C31.4059 35.9773 32.0696 35.3745 32.4033 33.5762C33.1983 29.3256 34.762 20.1164 35.1221 16.3213C35.1558 15.989 35.115 15.5627 35.085 15.376C35.0512 15.1891 34.983 14.9233 34.7432 14.7266C34.4544 14.4932 34.0122 14.4441 33.8135 14.4473Z" fill="#385462"/>
</svg>
