<svg width="48" height="48" viewBox="0 0 48 48" fill="none" xmlns="http://www.w3.org/2000/svg">
<path d="M47.9835 22.9192C47.7575 16.789 45.1511 10.9824 40.7082 6.71167C36.2654 2.44095 30.3297 0.0363585 24.1406 6.56741e-06H24.0238C19.8558 -0.00306223 15.7591 1.0694 12.1363 3.11186C8.51355 5.15432 5.48976 8.0964 3.36245 11.6486C1.23514 15.2008 0.0776178 19.2408 0.00376929 23.3709C-0.0700776 27.5011 0.942296 31.5791 2.94128 35.2039L0.818669 47.7925C0.815215 47.8182 0.817346 47.8445 0.824933 47.8694C0.832504 47.8944 0.845371 47.9174 0.862644 47.9371C0.879918 47.9568 0.901211 47.9725 0.925104 47.9834C0.948996 47.9942 0.974955 47.9998 1.00124 48H1.03775L13.6006 45.2304C16.8465 46.7749 20.4012 47.5763 24.0018 47.5754C24.2307 47.5754 24.4595 47.5754 24.6882 47.5754C27.8556 47.4858 30.9737 46.7754 33.8624 45.4851C36.7513 44.1949 39.3536 42.3504 41.5195 40.0581C43.6853 37.7658 45.3716 35.0711 46.481 32.1293C47.5904 29.1877 48.101 26.0575 47.9835 22.9192ZM24.5689 43.4378C24.3791 43.4378 24.1892 43.4378 24.0018 43.4378C20.8196 43.4418 17.6829 42.687 14.8566 41.2376L14.214 40.9046L5.69435 42.8998L7.26682 34.357L6.90171 33.7442C5.1578 30.7975 4.21848 27.4512 4.17626 24.0351C4.13405 20.6191 4.99038 17.2509 6.66092 14.2627C8.33149 11.2744 10.7586 8.76893 13.7033 6.99307C16.648 5.2172 20.0086 4.23221 23.4542 4.13511C23.6457 4.13511 23.838 4.13511 24.031 4.13511C29.2333 4.15039 34.2211 6.19052 37.9201 9.81595C41.6191 13.4414 43.7331 18.362 43.8065 23.5173C43.8798 28.6728 41.9069 33.6504 38.3127 37.3779C34.7184 41.1054 29.7906 43.2843 24.5909 43.4451L24.5689 43.4378Z" fill="#385462"/>
<path d="M14.7968 12.4939C15.0678 12.3741 15.3602 12.3095 15.6567 12.3037L15.7079 12.2965C16.1096 12.3085 16.5112 12.3206 16.8617 12.3447L16.8643 12.3449C17.2897 12.3762 17.7754 12.412 18.1835 13.4352C18.6874 14.6342 19.7609 17.6233 19.9044 17.9273C19.9947 18.0869 20.0434 18.2659 20.0463 18.4488C20.0494 18.6315 20.0064 18.8121 19.9215 18.9744C19.7573 19.324 19.5443 19.6488 19.2885 19.9393C18.977 20.2797 18.6533 20.6728 18.3514 20.9576C18.0495 21.2422 17.7186 21.5558 18.0495 22.1638C18.9061 23.7301 19.9922 25.1617 21.2724 26.4123C22.6425 27.7419 24.2517 28.8057 26.0167 29.5486C26.2209 29.6545 26.4461 29.7147 26.6763 29.7248C26.8012 29.7225 26.9244 29.6944 27.0376 29.642C27.1508 29.5896 27.2516 29.5142 27.3335 29.4208C27.7085 29.0443 28.8258 27.7392 29.3125 27.1384C29.3884 27.0152 29.4935 26.912 29.6186 26.8381C29.7437 26.764 29.8851 26.7214 30.0306 26.7139C30.254 26.7302 30.4726 26.7865 30.6757 26.8803C31.2234 27.0974 34.1372 28.6414 34.7311 28.9502C35.325 29.259 35.7194 29.4328 35.8629 29.674C36.0066 29.9153 35.9701 31.1216 35.4248 32.5016C34.8796 33.8816 32.3796 35.1505 31.272 35.218C30.9435 35.2374 30.6295 35.2808 30.2132 35.2808C29.2031 35.2808 27.6452 35.0203 24.0912 33.5027C18.0447 30.9286 14.374 24.5811 14.0843 24.1734L14.082 24.1701C13.7837 23.7504 11.7234 20.8508 11.8156 17.9201C11.9081 14.9816 13.5074 13.5824 14.0795 13.0009C14.2819 12.7861 14.5259 12.6136 14.7968 12.4939Z" fill="#385462"/>
</svg>
